<svg width="64" height="64" viewBox="0 0 64 64" fill="none" xmlns="http://www.w3.org/2000/svg">
  <path fill-rule="evenodd" clip-rule="evenodd" d="M31.5 2.8433L54 15.9235V25.8731C54 26.4254 53.5523 26.8731 53 26.8731C52.4477 26.8731 52 26.4254 52 25.8731V18.2369L31.5 30.1545L11 18.2369V36.5C11 37.0523 10.5523 37.5 10 37.5C9.44772 37.5 9 37.0523 9 36.5V15.9235L31.5 2.8433ZM11.9897 16.4989L15.375 18.4669L18.7603 16.4989L15.375 14.5309L11.9897 16.4989ZM17.3647 13.3742L20.75 15.3422L24.1353 13.3742L20.75 11.4062L17.3647 13.3742ZM22.7397 10.2495L26.125 12.2175L29.5103 10.2495L26.125 8.28143L22.7397 10.2495ZM28.1147 7.12473L31.5 9.09275L34.8853 7.12473L31.5 5.15671L28.1147 7.12473ZM36.875 8.28143L33.4897 10.2495L36.875 12.2175L40.2603 10.2495L36.875 8.28143ZM42.25 11.4062L38.8647 13.3742L42.25 15.3422L45.6353 13.3742L42.25 11.4062ZM47.625 14.5309L44.2397 16.4989L47.625 18.4669L51.0103 16.4989L47.625 14.5309ZM45.6353 19.6236L42.25 17.6556L38.8647 19.6236L42.25 21.5916L45.6353 19.6236ZM40.2603 22.7484L36.875 20.7803L33.4897 22.7484L36.875 24.7164L40.2603 22.7484ZM34.8853 25.8731L31.5 23.9051L28.1147 25.8731L31.5 27.8411L34.8853 25.8731ZM26.125 24.7164L29.5103 22.7484L26.125 20.7803L22.7397 22.7484L26.125 24.7164ZM20.75 21.5916L24.1353 19.6236L20.75 17.6556L17.3647 19.6236L20.75 21.5916ZM22.7397 16.4989L26.125 18.4669L29.5103 16.4989L26.125 14.5309L22.7397 16.4989ZM28.1147 13.3742L31.5 15.3422L34.8853 13.3742L31.5 11.4062L28.1147 13.3742ZM36.875 14.5309L33.4897 16.4989L36.875 18.4669L40.2603 16.4989L36.875 14.5309ZM34.8853 19.6236L31.5 17.6556L28.1147 19.6236L31.5 21.5916L34.8853 19.6236ZM53 30C53.5523 30 54 30.4477 54 31V49.0765L31.5 62.1567L9 49.0765V41C9 40.4477 9.44772 40 10 40C10.5523 40 11 40.4477 11 41V47.9258L31.5 59.8433L52 47.9258V31C52 30.4477 52.4477 30 53 30Z" fill="#844d36" />
  <path d="M25.0469 40.4453H26.2031C26.7865 40.4401 27.2474 40.2891 27.5859 39.9922C27.9297 39.6953 28.1016 39.2656 28.1016 38.7031C28.1016 38.1615 27.9583 37.7422 27.6719 37.4453C27.3906 37.1432 26.9583 36.9922 26.375 36.9922C25.8646 36.9922 25.4453 37.1406 25.1172 37.4375C24.7891 37.7292 24.625 38.112 24.625 38.5859H22.7266C22.7266 38.0026 22.8802 37.4714 23.1875 36.9922C23.5 36.513 23.9323 36.1406 24.4844 35.875C25.0417 35.6042 25.6641 35.4688 26.3516 35.4688C27.487 35.4688 28.3776 35.7552 29.0234 36.3281C29.6745 36.8958 30 37.6875 30 38.7031C30 39.2135 29.8359 39.6953 29.5078 40.1484C29.1849 40.5964 28.7656 40.9349 28.25 41.1641C28.875 41.3776 29.349 41.7135 29.6719 42.1719C30 42.6302 30.1641 43.1771 30.1641 43.8125C30.1641 44.8333 29.8125 45.6458 29.1094 46.25C28.4115 46.8542 27.4922 47.1563 26.3516 47.1563C25.2578 47.1563 24.362 46.8646 23.6641 46.2813C22.9661 45.6979 22.6172 44.9219 22.6172 43.9531H24.5156C24.5156 44.4531 24.6823 44.8594 25.0156 45.1719C25.3542 45.4844 25.8073 45.6406 26.375 45.6406C26.9635 45.6406 27.4271 45.4844 27.7656 45.1719C28.1042 44.8594 28.2734 44.4063 28.2734 43.8125C28.2734 43.2135 28.0964 42.7526 27.7422 42.4297C27.388 42.1068 26.862 41.9453 26.1641 41.9453H25.0469V40.4453Z" fill="#844d36" />
  <path d="M32.25 47V35.625H35.6094C36.6146 35.625 37.5052 35.849 38.2812 36.2969C39.0625 36.7448 39.6667 37.3802 40.0938 38.2031C40.5208 39.026 40.7344 39.9688 40.7344 41.0313V41.6016C40.7344 42.6797 40.5182 43.6276 40.0859 44.4453C39.6589 45.263 39.0469 45.8932 38.25 46.3359C37.4583 46.7786 36.5495 47 35.5234 47H32.25ZM34.2266 37.2188V45.4219H35.5156C36.5521 45.4219 37.3464 45.099 37.8984 44.4531C38.4557 43.8021 38.7396 42.8698 38.75 41.6563V41.0234C38.75 39.7891 38.4818 38.8464 37.9453 38.1953C37.4089 37.5443 36.6302 37.2188 35.6094 37.2188H34.2266Z" fill="#844d36" />
</svg>
