<svg width="64" height="64" viewBox="0 0 64 64" fill="none" xmlns="http://www.w3.org/2000/svg">
  <path fill-rule="evenodd" clip-rule="evenodd" d="M8.5 48C10.433 48 12 46.433 12 44.5C12 42.567 10.433 41 8.5 41C6.567 41 5 42.567 5 44.5C5 46.433 6.567 48 8.5 48ZM8.5 50C11.5376 50 14 47.5375 14 44.5C14 41.4624 11.5376 39 8.5 39C5.46243 39 3 41.4624 3 44.5C3 47.5375 5.46243 50 8.5 50Z" fill="#844d36" />
  <path fill-rule="evenodd" clip-rule="evenodd" d="M8.5 46C9.32843 46 10 45.3284 10 44.5C10 43.6716 9.32843 43 8.5 43C7.67157 43 7 43.6716 7 44.5C7 45.3284 7.67157 46 8.5 46ZM8.5 47C9.88071 47 11 45.8807 11 44.5C11 43.1193 9.88071 42 8.5 42C7.11929 42 6 43.1193 6 44.5C6 45.8807 7.11929 47 8.5 47Z" fill="#844d36" />
  <path fill-rule="evenodd" clip-rule="evenodd" d="M21.5 46C22.3284 46 23 45.3284 23 44.5C23 43.6716 22.3284 43 21.5 43C20.6716 43 20 43.6716 20 44.5C20 45.3284 20.6716 46 21.5 46ZM21.5 47C22.8807 47 24 45.8807 24 44.5C24 43.1193 22.8807 42 21.5 42C20.1193 42 19 43.1193 19 44.5C19 45.8807 20.1193 47 21.5 47Z" fill="#844d36" />
  <path fill-rule="evenodd" clip-rule="evenodd" d="M53.5 46C54.3284 46 55 45.3284 55 44.5C55 43.6716 54.3284 43 53.5 43C52.6716 43 52 43.6716 52 44.5C52 45.3284 52.6716 46 53.5 46ZM53.5 47C54.8807 47 56 45.8807 56 44.5C56 43.1193 54.8807 42 53.5 42C52.1193 42 51 43.1193 51 44.5C51 45.8807 52.1193 47 53.5 47Z" fill="#844d36" />
  <path fill-rule="evenodd" clip-rule="evenodd" d="M21.5 48C23.433 48 25 46.433 25 44.5C25 42.567 23.433 41 21.5 41C19.567 41 18 42.567 18 44.5C18 46.433 19.567 48 21.5 48ZM21.5 50C24.5376 50 27 47.5375 27 44.5C27 41.4624 24.5376 39 21.5 39C18.4624 39 16 41.4624 16 44.5C16 47.5375 18.4624 50 21.5 50Z" fill="#844d36" />
  <path fill-rule="evenodd" clip-rule="evenodd" d="M53.5 48C55.433 48 57 46.433 57 44.5C57 42.567 55.433 41 53.5 41C51.567 41 50 42.567 50 44.5C50 46.433 51.567 48 53.5 48ZM53.5 50C56.5376 50 59 47.5375 59 44.5C59 41.4624 56.5376 39 53.5 39C50.4624 39 48 41.4624 48 44.5C48 47.5375 50.4624 50 53.5 50Z" fill="#844d36" />
  <path fill-rule="evenodd" clip-rule="evenodd" d="M29 40C29.5523 40 30 40.4477 30 41V44.5H45V41C45 40.4477 45.4477 40 46 40C46.5523 40 47 40.4477 47 41V44.5C47 45.6045 46.1046 46.5 45 46.5H30C28.8954 46.5 28 45.6045 28 44.5V41C28 40.4477 28.4477 40 29 40Z" fill="#844d36" />
  <path fill-rule="evenodd" clip-rule="evenodd" d="M45 15.377V36.9032C45 38.0078 44.1046 38.9032 43 38.9032H3C2.44772 38.9032 2 38.4555 2 37.9032C2 37.3509 2.44772 36.9032 3 36.9032H43V15.3011C43 14.019 44.2502 12.9652 45.5849 13.4603C46.6422 13.8524 47.8976 14.4367 49.0269 15.2145C50.1448 15.9844 51.2201 16.9996 51.7968 18.2823C51.8614 18.4259 51.9903 18.5145 52.0976 18.5319C53.9028 18.8253 55.6135 19.8623 56.5081 20.5353C56.8981 20.8287 57.1361 21.2462 57.2284 21.6764L58.2462 26.4193C58.2642 26.5032 58.4057 26.7212 58.7515 26.9816C59.3595 27.4394 60.1773 28.274 60.4862 29.1995C60.6151 29.5856 60.6976 30.284 60.761 31.0213C60.8289 31.8102 60.8848 32.7914 60.9254 33.8387C61.0065 35.9301 61.0282 38.3282 60.9568 40.0417C60.9337 40.5935 60.4677 41.0221 59.9159 40.9991C59.3641 40.9761 58.9355 40.5101 58.9585 39.9583C59.027 38.3169 59.0068 35.9763 58.9269 33.9161C58.887 32.8876 58.8326 31.9398 58.7684 31.1927C58.7362 30.8186 58.7023 30.5032 58.6677 30.2572C58.6504 30.1343 58.6338 30.0348 58.6185 29.9578C58.6109 29.9195 58.6042 29.8896 58.5985 29.8671C58.5958 29.856 58.5935 29.8476 58.5918 29.8415C58.59 29.8354 58.5891 29.8327 58.5891 29.8327C58.4652 29.4614 58.0135 28.9295 57.5484 28.5792C57.1411 28.2725 56.4705 27.6769 56.2907 26.8389L55.2763 22.1115C54.4928 21.5279 53.1064 20.7221 51.7767 20.506C50.9589 20.3731 50.2925 19.8136 49.9728 19.1025C49.607 18.2891 48.8614 17.529 47.8925 16.8617C46.972 16.2277 45.9225 15.7273 45 15.377Z" fill="#844d36" />
  <path fill-rule="evenodd" clip-rule="evenodd" d="M46.0076 25.9131C46.0556 25.6411 46.315 25.4596 46.5869 25.5076L55.0869 27.0076C55.3588 27.0556 55.5404 27.3149 55.4924 27.5869C55.4444 27.8588 55.1851 28.0404 54.9131 27.9924L46.4131 26.4924C46.1412 26.4444 45.9596 26.185 46.0076 25.9131Z" fill="#844d36" />
  <path fill-rule="evenodd" clip-rule="evenodd" d="M52.6981 37.0088C51.1161 37.2021 49.6362 37.8696 48.7684 38.4218L48.2316 37.5781C49.1971 36.9637 50.8173 36.2312 52.5769 36.0162C54.3446 35.8002 56.3105 36.1033 57.8536 37.6464L57.1464 38.3535C55.8895 37.0966 54.272 36.8165 52.6981 37.0088Z" fill="#844d36" />
  <path fill-rule="evenodd" clip-rule="evenodd" d="M5 17V34H40V17H5ZM4 15C3.44772 15 3 15.4477 3 16V35C3 35.5523 3.44772 36 4 36H41C41.5523 36 42 35.5523 42 35V16C42 15.4477 41.5523 15 41 15H4Z" fill="#844d36" />
  <path fill-rule="evenodd" clip-rule="evenodd" d="M6.5 22H7.5V31.5H26V32.5H6.5V22Z" fill="#844d36" />
</svg>
