<svg width="512" height="512" viewBox="0 0 512 512" fill="none" xmlns="http://www.w3.org/2000/svg">
  <path fill-rule="evenodd" clip-rule="evenodd" d="M450.341 249.928L167.151 86.4282C159.02 81.7338 148.623 84.5197 143.928 92.6506L55.4282 245.937C50.7337 254.068 53.5196 264.465 61.6506 269.16L344.841 432.66C352.972 437.354 363.369 434.568 368.063 426.437L456.563 273.151C461.258 265.02 458.472 254.623 450.341 249.928ZM171.151 79.5C159.193 72.5964 143.904 76.6933 137 88.6506L48.5 241.937C41.5964 253.894 45.6933 269.184 57.6506 276.088L340.841 439.588C352.798 446.491 368.088 442.394 374.992 430.437L463.492 277.151C470.395 265.193 466.298 249.904 454.341 243L171.151 79.5Z" fill="#844d36" />
  <path d="M332.558 349.935C321.374 369.306 296.604 375.943 277.234 364.759C257.863 353.575 251.226 328.806 262.41 309.435C273.593 290.064 298.363 283.427 317.734 294.611C337.104 305.795 343.741 330.564 332.558 349.935Z" fill="#844d36" />
  <path fill-rule="evenodd" clip-rule="evenodd" d="M279.734 360.429C296.713 370.232 318.424 364.414 328.227 347.435C338.031 330.456 332.213 308.744 315.234 298.941C298.254 289.138 276.543 294.956 266.74 311.935C256.937 328.914 262.754 350.626 279.734 360.429ZM277.234 364.759C296.604 375.943 321.374 369.306 332.558 349.935C343.741 330.564 337.104 305.795 317.734 294.611C298.363 283.427 273.593 290.064 262.41 309.435C251.226 328.806 257.863 353.575 277.234 364.759Z" fill="#844d36" />
  <path fill-rule="evenodd" clip-rule="evenodd" d="M314.375 380.429C331.354 390.232 353.065 384.414 362.868 367.435C372.672 350.456 366.854 328.744 349.875 318.941C332.895 309.138 311.184 314.956 301.381 331.935C291.578 348.914 297.395 370.626 314.375 380.429ZM311.875 384.759C331.245 395.943 356.015 389.306 367.199 369.935C378.382 350.564 371.745 325.795 352.375 314.611C333.004 303.427 308.234 310.064 297.051 329.435C285.867 348.806 292.504 373.575 311.875 384.759Z" fill="#844d36" />
  <path d="M137.83 97.2128L455.661 280.713L434.661 317.086L116.83 133.586L137.83 97.2128Z" fill="#844d36" />
</svg>
