<svg width="95" height="68" viewBox="0 0 95 68" fill="none" xmlns="http://www.w3.org/2000/svg">
<g opacity="0.3">
<path fill-rule="evenodd" clip-rule="evenodd" d="M0.412341 57.3796C14.4344 51.4794 21.4453 44.5467 21.4453 36.5813C15.4687 35.9913 10.5266 33.9017 6.61878 30.3124C2.711 26.723 0.757145 22.5684 0.757145 17.8482C0.757145 12.8329 2.65354 8.6045 6.44638 5.16269C10.2392 1.72088 15.0089 4.76837e-07 20.7557 4.76837e-07C27.192 4.76837e-07 32.7663 2.23714 37.4786 6.7115C42.1909 11.1859 44.547 16.6189 44.547 23.0108C44.547 42.1866 32.0193 57.1829 6.96358 68L0.412341 57.3796ZM49.8967 57.3796C64.0336 51.4794 71.102 44.5467 71.102 36.5813C65.0105 35.9913 60.0109 33.9017 56.1031 30.3124C52.1953 26.723 50.2415 22.5684 50.2415 17.8482C50.2415 12.8329 52.1666 8.6045 56.0169 5.16269C59.8672 1.72088 64.6657 4.76837e-07 70.4124 4.76837e-07C76.8488 4.76837e-07 82.3943 2.23714 87.0491 6.7115C91.704 11.1859 94.0314 16.6189 94.0314 23.0108C94.0314 42.1866 81.5611 57.1829 56.6203 68L49.8967 57.3796Z" fill="#219653"/>
</g>
</svg>
